<?xml version="1.0" encoding="UTF-8" standalone="no"?>
<svg
   xmlns:dc="http://purl.org/dc/elements/1.1/"
   xmlns:cc="http://creativecommons.org/ns#"
   xmlns:rdf="http://www.w3.org/1999/02/22-rdf-syntax-ns#"
   xmlns:svg="http://www.w3.org/2000/svg"
   xmlns="http://www.w3.org/2000/svg"
   xmlns:sodipodi="http://sodipodi.sourceforge.net/DTD/sodipodi-0.dtd"
   xmlns:inkscape="http://www.inkscape.org/namespaces/inkscape"
   width="580mm"
   height="420mm"
   viewBox="0 0 580 420"
   version="1.1"
   id="svg8"
   inkscape:version="1.0.1 (0767f8302a, 2020-10-17)"
   sodipodi:docname="logo.svg">
  <defs
     id="defs2">
    <clipPath
       clipPathUnits="userSpaceOnUse"
       id="clipPath883">
      <path
         d="M 0,2078.299 H 2367.433 V 0 H 0 Z"
         id="path881" />
    </clipPath>
  </defs>
  <sodipodi:namedview
     id="base"
     pagecolor="#ffffff"
     bordercolor="#666666"
     borderopacity="1.0"
     inkscape:pageopacity="0.0"
     inkscape:pageshadow="2"
     inkscape:zoom="0.24748737"
     inkscape:cx="1378.616"
     inkscape:cy="541.11627"
     inkscape:document-units="mm"
     inkscape:current-layer="layer1"
     inkscape:document-rotation="0"
     showgrid="false"
     inkscape:window-width="1439"
     inkscape:window-height="1016"
     inkscape:window-x="2042"
     inkscape:window-y="147"
     inkscape:window-maximized="0" />
  <metadata
     id="metadata5">
    <rdf:RDF>
      <cc:Work
         rdf:about="">
        <dc:format>image/svg+xml</dc:format>
        <dc:type
           rdf:resource="http://purl.org/dc/dcmitype/StillImage" />
        <dc:title></dc:title>
      </cc:Work>
    </rdf:RDF>
  </metadata>
  <g
     inkscape:label="Layer 1"
     inkscape:groupmode="layer"
     id="layer1">
    <g
       id="g879"
       clip-path="url(#clipPath883)"
       transform="matrix(0.35277777,0,0,-0.35277777,-135.13321,589.11819)">
      <g
         id="g885"
         transform="translate(1879.1226,1058.4467)">
        <path
           d="M 0,0 C 2.727,-2.578 3.581,1.221 3.974,2.089 L 2.77,2.125 C 0.954,2.842 -0.291,1.187 0,0"
           style="fill:#ffef23;fill-opacity:1;fill-rule:nonzero;stroke:none"
           id="path887" />
      </g>
      <g
         id="g889"
         transform="translate(1888.7368,1101.3461)">
        <path
           d="M 0,0 C -0.135,-0.108 -0.269,-0.252 -0.406,-0.415 -0.081,-0.457 0.168,-0.412 0,0"
           style="fill:#ffef23;fill-opacity:1;fill-rule:nonzero;stroke:none"
           id="path891" />
      </g>
      <g
         id="g893"
         transform="translate(1878.7222,1042.5092)">
        <path
           d="m 0,0 1.001,0.198 -1.119,2.08 C -1.174,1.717 -0.618,0.675 0,0"
           style="fill:#ffef23;fill-opacity:1;fill-rule:nonzero;stroke:none"
           id="path895" />
      </g>
      <g
         id="g897"
         transform="translate(1877.9341,1054.141)">
        <path
           d="M 0,0 C -1.036,-1.884 0.961,-4.511 0.405,-6.481 L 1.845,-8.06 C 3.394,-5.892 5.248,-1.906 4.32,1.277 1.419,2.754 2.59,1.032 0,0"
           style="fill:#ffef23;fill-opacity:1;fill-rule:nonzero;stroke:none"
           id="path899" />
      </g>
      <g
         id="g901"
         transform="translate(1834.3813,974.9808)">
        <path
           d="M 0,0 0.533,0.168 C 1.526,0.207 1.38,-0.389 2.03,-0.73 2.638,-0.264 1.865,0.591 0.943,0.848 0.871,0.551 0.533,0.168 0,0"
           style="fill:#ffef23;fill-opacity:1;fill-rule:nonzero;stroke:none"
           id="path903" />
      </g>
      <g
         id="g905"
         transform="translate(1870.9194,1002.2308)">
        <path
           d="M 0,0 C -0.134,-0.079 -0.269,-0.188 -0.405,-0.313 -0.085,-0.378 0.162,-0.363 0,0"
           style="fill:#ffef23;fill-opacity:1;fill-rule:nonzero;stroke:none"
           id="path907" />
      </g>
      <g
         id="g909"
         transform="translate(1868.9233,1009.642)">
        <path
           d="m 0,0 -0.271,-1.209 3.299,-0.543 0.01,1.118 C 2.166,-2.328 1.263,1.271 0,0"
           style="fill:#ffef23;fill-opacity:1;fill-rule:nonzero;stroke:none"
           id="path911" />
      </g>
      <g
         id="g913"
         transform="translate(1872.5747,1012.8519)">
        <path
           d="m 0,0 c -0.86,-0.577 -0.732,-1.09 -0.143,-1.726 0.137,0.605 1.592,0.549 1.197,0.97 z"
           style="fill:#ffef23;fill-opacity:1;fill-rule:nonzero;stroke:none"
           id="path915" />
      </g>
      <g
         id="g917"
         transform="translate(1851.644,1146.099)">
        <path
           d="M 0,0 C 0.099,0.017 0.242,-0.184 0.335,-0.619 L 0.242,-0.184 C 0.156,0.703 0.353,0.734 0.411,1.415 0.22,1.835 0.011,0.903 0,0"
           style="fill:#ffef23;fill-opacity:1;fill-rule:nonzero;stroke:none"
           id="path919" />
      </g>
      <g
         id="g921"
         transform="translate(1836.8921,1146.1439)">
        <path
           d="M 0,0 C -0.445,-0.748 -0.878,0.756 -1.137,-1.762 -0.649,-2.132 -0.445,-0.748 0,0"
           style="fill:#ffef23;fill-opacity:1;fill-rule:nonzero;stroke:none"
           id="path923" />
      </g>
      <g
         id="g925"
         transform="translate(1904.0923,1157.7416)">
        <path
           d="M 0,0 C 0.011,0.01 0.021,0.019 0.032,0.028 0.387,0.051 0.74,0.078 1.094,0.113 0.741,0.047 0.377,0.011 0,0 m -26.728,86.982 c 0.025,0.027 0.035,0.055 0.056,0.082 0.004,-0.024 0.013,-0.047 0.017,-0.072 -0.024,-0.003 -0.049,-0.007 -0.073,-0.01 M -76.964,24.608 c -0.517,0.4 -1.035,0.799 -1.553,1.2 -0.02,0.025 -0.04,0.05 -0.059,0.077 0.527,-0.428 1.065,-0.853 1.613,-1.277 z m 110.91,21.694 c -0.172,0.432 -0.373,0.859 -0.581,1.283 0.342,0.419 0.692,0.825 1.117,1.083 -0.78,2.65 -3.791,3.727 -6.288,5.97 -0.198,-0.051 -0.466,-0.018 -0.738,0.017 -1.089,0.821 -2.244,1.557 -3.421,2.205 -0.596,0.282 -1.21,0.521 -1.812,0.786 -1.951,4.1 -6.714,7.673 -10.019,9.591 -3.571,2.073 -7.309,3.579 -11.25,3.786 0.041,0.194 0.089,0.369 0.148,0.507 -0.018,0.057 -0.032,0.114 -0.051,0.17 0.221,1.022 -0.086,2.263 -1.622,3.128 -0.42,0.175 -0.891,0.353 -1.37,0.529 0.062,0.226 0.127,0.424 0.192,0.591 L -1.771,76.2 c 0.387,1.461 0.271,3.302 -1.133,4.696 -0.892,0.663 -1.988,1.348 -3.043,2.022 -0.052,-0.016 -0.103,-0.026 -0.155,-0.042 0,0.013 0.004,0.024 0.004,0.037 0.009,2.544 -0.487,5.026 -1.368,7.381 4.278,5.528 1.891,15.914 -7.242,15.914 -6.766,0 -9.82,-5.726 -9.215,-10.941 -0.526,-0.543 -0.975,-1.134 -1.361,-1.76 -1.442,-0.784 -2.468,-1.485 -3.016,-2.059 0.788,-0.025 1.36,0.015 1.843,0.079 0.046,-0.109 0.078,-0.206 0.116,-0.307 -0.268,-0.877 -0.395,-1.784 -0.406,-2.708 -1.838,0.209 -2.014,0.312 -0.814,0.75 -4.044,0.122 -3.474,-0.015 -2.548,-0.229 0.922,-0.22 2.182,-0.631 -0.45,-0.813 1.619,0.076 1.495,-0.363 1.541,-0.609 l 1.581,0.213 -1.467,0.311 c 0.602,0.243 1.373,0.288 2.16,0.277 0,-0.354 -0.017,-0.708 0.023,-1.063 -0.129,-0.143 -0.295,-0.298 -0.369,-0.423 -0.008,-0.001 -0.015,-0.003 -0.024,-0.004 l 0.144,0.576 -0.801,-0.05 c -0.249,-0.141 -0.451,-0.286 -0.494,-0.451 l 0.107,0.421 c -0.628,-0.057 -1.237,-0.131 -1.808,-0.219 -1.268,-0.405 -3.104,-0.732 -3.173,-0.998 -1.101,-2.101 -1.951,-4.213 -2.323,-6.358 0.703,-0.079 1.419,-0.037 1.725,-0.252 0.605,-0.64 -1.812,-0.837 -1.207,-1.475 l 1.131,-0.167 c -0.536,-0.385 -1.222,-0.768 -1.815,-1.17 0.058,-0.873 0.222,-1.755 0.489,-2.649 0.417,-0.029 0.8,-0.067 0.94,-0.17 0.257,-0.391 -0.206,-0.831 -0.393,-1.322 l 0.165,-0.249 c 0.213,-0.079 0.54,-0.138 0.783,-0.18 -0.439,-0.507 -0.966,-1.017 -1.549,-1.486 -0.524,-0.433 -1.08,-0.806 -1.634,-1.144 -2.05,1.709 -4.638,2.738 -7.691,2.602 -3.939,-0.177 -8.197,-2.313 -10.706,-5.607 -0.211,-0.056 -0.417,-0.128 -0.63,-0.179 -3.273,-0.796 -6.251,-1.881 -8.747,-4.281 -1.816,-1.745 -3.077,-4.058 -4.504,-6.115 -0.627,-0.904 -1.557,-2.009 -2.687,-3.252 -3.096,0.619 -6.385,0.211 -8.981,-1.463 -6.112,-3.94 -7.915,-11.189 -4.615,-17.599 1.113,-2.16 2.542,-3.904 4.163,-5.475 0.273,-1.729 0.853,-3.41 1.616,-4.714 0.037,-0.063 0.086,-0.126 0.125,-0.189 -1.101,-0.832 -2.23,-1.674 -3.271,-2.603 -0.332,0.192 -0.783,0.873 -0.757,0.475 l 0.194,-0.96 c -0.04,-0.04 -0.088,-0.072 -0.128,-0.112 -1.235,-1.237 -2.245,-2.711 -3.292,-4.091 -0.94,-1.477 -1.449,-3.071 -1.527,-4.783 -0.26,-1.166 -0.291,-2.331 -0.125,-3.496 -0.66,-1.263 -1.597,-1.932 -2.531,-2.595 -1.218,-0.857 -2.493,-1.758 -2.713,-3.737 1.164,-2.901 0.504,-2.632 0.368,-3.433 2.816,-1.966 4.767,-3.155 6.202,-3.445 -1.175,3.928 -2.702,2.466 -3.357,3.66 -0.68,0.908 -0.305,0.915 -0.344,1.467 0.852,-0.204 2.135,-1.235 3.238,-3.215 l -0.793,2.199 c 1.174,0.533 3.367,-0.784 5.191,-0.549 0.365,-2.117 0.274,-2.431 -0.928,-1.562 1.111,-3.801 1.133,-3.191 1.228,-2.189 0.092,1.003 0.338,2.428 1.645,0.184 -0.723,1.406 0.135,1.617 0.579,1.852 l -1.007,1.253 -0.014,-1.548 c -1.062,0.606 -1.464,1.906 -1.693,3.109 0.387,-0.289 0.784,-0.554 1.196,-0.772 1.136,-0.601 2.364,-1.084 3.631,-1.397 -0.055,-0.04 -0.11,-0.082 -0.167,-0.144 0.637,-3.273 1.714,-5.351 2.741,-6.307 0.844,3.965 -0.877,3.457 -0.776,4.827 -0.042,1 0.148,0.959 0.331,1.284 0.047,-0.004 0.094,-0.012 0.142,-0.015 0.413,-0.668 0.803,-2.095 0.798,-4.212 l 0.3,2.3 c 0.935,-0.071 1.91,-2.162 3.037,-2.651 -0.352,-2.083 -0.499,-2.335 -0.985,-1.065 -0.909,-7.805 0.842,2.166 1.166,-2.959 -0.043,1.569 0.496,1.433 0.79,1.481 l -0.239,1.536 -0.398,-1.417 c -0.635,1.365 -0.161,3.5 0.065,4.861 0.289,-0.177 0.58,-0.347 0.881,-0.495 0.417,-1.875 0.67,-5.007 1.505,-4.41 0.058,1.584 -0.138,1.551 -0.034,2.92 0.111,0.232 0.181,0.548 0.244,0.853 0.167,-0.045 0.33,-0.105 0.5,-0.141 0.592,-0.123 1.137,-0.185 1.702,-0.276 -0.207,-0.903 -0.65,-0.833 -0.591,-2.382 l 0.286,-1.303 c 0.344,0.283 0.767,-2.572 1.077,-0.272 l -0.01,-1.353 c 0.5,1.434 1.279,0.661 1.59,2.963 0.835,-1.238 1.743,-0.659 2.665,0.108 0.797,-0.036 1.594,-0.071 2.383,-0.062 l 0.095,-0.773 c 0.412,-0.434 0.604,0.05 0.735,0.808 2.313,0.072 4.593,0.303 6.843,0.636 0.377,-0.424 0.921,-0.048 1.272,0.008 0.134,-0.046 0.233,0.054 0.315,0.235 0.169,0.028 0.341,0.049 0.511,0.078 -0.109,-0.677 -0.148,-1.431 0.028,-2.417 l 0.459,1.197 c 0.061,0.432 0.121,0.89 0.18,1.355 0.439,0.083 0.871,0.184 1.309,0.272 0.003,-0.01 0.005,-0.022 0.007,-0.031 0.003,0.013 0.005,0.02 0.007,0.034 3.795,0.761 7.543,1.641 11.329,2.409 0.567,0.493 1.951,1.117 3.765,1.81 -1.978,-9.814 -4.007,-19.643 -6.06,-29.486 -0.138,0.114 -0.258,0.228 -0.448,0.342 -0.432,-0.926 -0.277,-1.65 0.019,-2.395 -4.022,-19.255 -8.1,-38.562 -11.966,-57.917 -0.144,-0.168 -0.303,-0.336 -0.52,-0.453 l 0.481,0.258 c -6.095,-30.522 -11.621,-61.163 -15.51,-91.896 -0.433,-0.999 -0.547,-2.269 -0.755,-3.118 -0.253,-0.58 -0.121,-1.024 0.201,-1.4 -0.063,-0.512 -0.128,-1.022 -0.189,-1.534 -0.67,0.724 -1.485,1.256 -2.965,0.902 l 0.816,-1.667 c 0.589,-0.44 1.236,-0.884 1.892,-1.329 -0.124,-1.059 -0.252,-2.118 -0.371,-3.177 -0.433,-0.061 -0.86,-0.178 -1.249,-0.364 0.488,-0.548 0.754,-0.833 1.095,-1.115 -0.339,-3.056 -0.659,-6.112 -0.961,-9.169 -1.73,-0.05 -3.114,-0.479 -2.642,-2.58 1.071,-0.06 1.809,-0.231 2.331,-0.476 -0.221,-2.346 -0.399,-4.696 -0.598,-7.045 -0.727,-0.166 -1.588,-0.253 -2.537,-0.415 0.495,-0.562 0.481,-1.685 1.516,-2.194 0.262,-0.058 0.526,-0.09 0.787,-0.142 -0.11,-1.361 -0.245,-2.721 -0.346,-4.084 -1.128,-15.138 22.46,-15.067 23.583,0 0.247,3.318 0.564,6.624 0.878,9.932 0.006,0.044 0.006,0.09 0.011,0.135 0.328,3.455 0.694,6.904 1.085,10.349 0.094,-0.138 0.197,-0.274 0.307,-0.398 l 0.994,0.039 -1.005,1.901 c -0.051,-0.016 -0.082,-0.041 -0.127,-0.06 0.087,0.743 0.165,1.487 0.254,2.229 l 1.091,-1.226 c 1.635,1.632 3.641,4.779 2.849,7.584 -2.245,1.278 -2.021,0.512 -3.165,-0.131 0.125,0.965 0.262,1.928 0.392,2.892 2.437,-2.154 3.404,0.791 3.803,1.464 l -1.186,0.171 c -1.063,0.493 -1.946,0.228 -2.433,-0.282 0.083,0.602 0.162,1.204 0.246,1.806 2.723,1.184 6.021,2.202 3.595,5.332 2.228,-0.94 2.467,1.088 2.876,1.781 0.624,1.599 2.021,5.402 -2.536,5.845 -3.243,-0.237 0.786,-3.913 -2.597,-4.75 -0.061,-0.017 -0.105,-0.023 -0.163,-0.037 0.661,4.391 1.351,8.779 2.078,13.161 1.294,-0.889 2.981,-1.7 2.541,-3.579 4.791,1.599 -0.765,7.266 4.284,8.964 0.275,1.212 -2.228,2.038 -2.83,1.556 -0.202,-0.907 -1.406,-1.867 -0.495,-3.234 -0.355,-0.741 -1.658,-1.486 -3.112,-1.407 0.333,1.981 0.663,3.962 1.006,5.942 2.74,-0.19 3.876,1.491 4.811,2.342 -0.322,0.065 -0.719,0.21 -0.853,0.166 -1.551,0.409 -2.824,-0.062 -3.66,-0.744 1.2,6.856 2.463,13.704 3.748,20.548 2.349,0.814 4.668,1.756 6.918,2.855 -0.119,0.163 -0.236,0.308 -0.402,0.338 0.393,2.562 3.506,5.586 0.199,9.176 -0.908,-1.159 -1.845,-0.994 -2.858,-2.886 -3.749,2.35 1.183,2.994 1.469,4.824 -0.922,-1.028 -1.937,0.194 -2.344,1.409 0.119,0.62 0.237,1.241 0.356,1.862 1.096,2.246 1.442,5.557 1.903,8.425 -0.09,0.134 -0.148,0.288 -0.191,0.448 0.504,2.618 1.017,5.235 1.522,7.853 0.426,0.173 0.816,0.381 1.095,0.686 -0.442,0.644 -0.621,1.217 -0.625,1.742 l 0.173,0.893 c 1.361,3.201 9.774,4.51 6.067,9.329 2.285,-0.811 2.457,1.605 2.845,2.474 0.576,1.963 1.855,6.618 -2.755,6.568 -3.266,-0.694 0.923,-4.519 -2.466,-5.948 -0.565,-0.259 -1.003,-0.402 -1.377,-0.484 1.042,5.377 2.078,10.756 3.125,16.132 1.295,-0.849 2.85,-1.638 2.472,-3.807 4.78,2.458 -0.92,8.498 4.143,11.082 0.263,1.461 -2.277,2.16 -2.882,1.524 -0.197,-1.094 -1.389,-2.37 -0.444,-3.883 -0.314,-0.83 -1.418,-1.744 -2.718,-1.968 0.468,2.399 0.926,4.801 1.395,7.2 2.144,0.448 3.131,2.219 3.961,3.199 -0.326,0.042 -0.729,0.172 -0.863,0.105 -0.326,0.066 -0.638,0.08 -0.938,0.066 1.481,1.385 2.581,3.369 3.025,6.049 0.055,0.331 0.109,0.663 0.165,0.995 l 0.021,-0.002 v 0.137 c 0.226,1.36 0.452,2.722 0.676,4.083 0.425,0.425 1.33,0.55 1.007,0.924 l -0.76,0.564 c 1.363,8.231 2.725,16.462 4.088,24.693 1.725,2.895 2.28,6.494 1.664,9.846 2.494,1.032 4.74,2.869 6.556,5.339 0.074,0.102 0.108,0.148 0.171,0.233 0.495,0.601 1.002,1.193 1.523,1.772 0.481,0.536 1.801,1.536 2.627,2.404 0.222,0.038 0.445,0.06 0.665,0.103 2.834,0.657 5.264,1.864 7.402,3.848 2.273,2.109 3.875,4.687 4.933,7.547 0.979,-0.636 2.267,-0.97 2.347,0.628 -0.041,0.115 -0.068,0.182 -0.107,0.284 0.263,0.052 0.53,0.098 0.787,0.156 0.635,0.141 1.241,0.346 1.844,0.584 0.405,0.159 0.786,0.316 1.174,0.473 0.082,0.009 0.154,0.023 0.22,0.007 0.207,0.034 0.514,0.101 0.705,0.382 1.672,0.728 3.202,1.564 4.594,2.978 1.257,1.277 2.278,2.727 3.048,4.294 0.076,-0.087 0.12,-0.112 0.086,0.034 l -0.026,0.086 c 0.938,1.949 1.477,4.082 1.492,6.333 0.003,0.329 -0.052,0.622 -0.07,0.937 1.33,1.415 2.287,3.137 2.602,5.131 0.233,1.472 0.347,2.902 0.37,4.301 0.146,0.2 0.294,0.398 0.427,0.648 0.09,3.117 0.732,2.622 1.323,3.296 -0.944,1.691 -2.009,2.96 -3.07,3.855"
           style="fill:#ffef23;fill-opacity:1;fill-rule:nonzero;stroke:none"
           id="path927" />
      </g>
      <g
         id="g929"
         transform="translate(1381.5024,827.7552)">
        <path
           d="M 0,0 -0.041,1.357 -0.78,1.126 C -1.919,0.528 -0.021,0.675 0,0"
           style="fill:#79b758;fill-opacity:1;fill-rule:nonzero;stroke:none"
           id="path931" />
      </g>
      <g
         id="g933"
         transform="translate(1396.5093,737.5824)">
        <path
           d="M 0,0 C 0.911,1.159 1.829,2.318 2.724,3.565 L 2.463,6.322 C 0.597,3.47 1.152,1.891 0,0"
           style="fill:#79b758;fill-opacity:1;fill-rule:nonzero;stroke:none"
           id="path935" />
      </g>
      <g
         id="g937"
         transform="translate(1420.8804,811.4222)">
        <path
           d="M 0,0 C 0.075,0.101 0.15,0.203 0.224,0.301 0.239,0.246 0.257,0.191 0.274,0.136 Z M 7.451,6.13 C 7.523,6.146 7.589,6.145 7.662,6.164 L 7.53,6.225 c 0.214,0.258 0.431,0.525 0.65,0.799 0.486,0.608 0.973,1.258 1.434,1.916 0.794,0.365 1.559,0.662 2.346,1.019 2.015,4.693 7.752,11.878 7.063,14.529 0.076,0.09 0.151,0.18 0.209,0.25 l 8.037,9.579 c 4.421,0.856 8.262,3.324 11.014,7.633 1.408,2.205 1.918,4.873 1.678,7.498 l 8.575,10.221 -10.019,-5.21 c -1.089,2.141 -2.73,3.971 -4.849,5.091 -3.802,2.009 -7.952,2.122 -11.508,0.607 -2.339,0.46 -4.614,0.597 -7.021,0.274 C 11.168,59.897 7.44,57.8 3.849,55.898 3.12,58.044 1.771,60.5 -0.104,62.242 c -0.618,0.595 -1.264,1.135 -1.973,1.634 -0.779,0.539 -1.615,1.017 -2.468,1.411 -0.869,0.393 -1.791,0.712 -2.711,0.944 -0.881,0.217 -1.746,0.348 -2.624,0.417 -3.363,0.203 -5.542,-0.528 -7.114,-1.103 -1.605,-0.629 -2.579,-1.198 -3.485,-1.711 -0.539,-0.977 -1.02,-1.823 -1.555,-2.647 -0.599,-0.9 -1.065,-1.599 -1.534,-2.305 -0.308,-0.558 -0.881,-0.981 -1.427,-1.42 -1.108,-0.859 -2.002,-1.871 -0.312,-3.748 -2.4,-1.984 0.139,-3.861 1.486,-6.181 -3.369,-0.698 -1.641,4.09 -4.362,4.32 -2.432,-2.565 -2.675,-6.548 -4.078,-9.622 1.333,-1.362 3.562,-0.652 3.425,-2.382 -0.816,0.867 -2.843,0.905 -3.068,0.311 0.478,0.558 0.783,-0.276 1.306,-0.521 l 0.488,0.345 c 4.102,-0.985 -1.093,-2.036 0.636,-3.716 -1.514,-0.114 0.185,0.56 -1.138,1.022 -1.824,0.495 -4.18,0.631 -5.265,-0.841 0.747,-1.878 0.027,-3.101 -0.894,-4.426 -0.891,-1.311 -1.988,-2.728 -1.719,-4.643 1.586,0.013 0.801,-0.949 0.977,-1.56 -1.31,0.863 -3.067,-0.512 -3.355,-1.27 0.84,-0.966 3.884,-1.192 3.555,-2.537 l 2.951,0.837 c 0.375,0.469 -0.851,2.292 -1.368,3.25 1.688,0.151 1.393,1.261 1.287,2.264 -0.092,0.999 -0.043,1.867 2.17,1.337 l -0.662,-0.448 c -1.922,-1.782 2.517,-3.302 3.984,-5.065 -1.339,-1.323 -3.65,-1.757 -5.403,-2.769 -0.857,-1.234 0.377,-1.566 1.192,-2.159 0.07,-0.095 0.104,-0.182 0.14,-0.269 -0.78,-0.53 -1.577,-1.062 -2.345,-1.77 -5.486,-5.052 -5.757,-11.553 -6.099,-17.969 -3.945,-4.023 -7.518,-9.046 -11.044,-11.53 -1.161,-4.368 -3.576,-8.204 -6.191,-12.599 -0.003,-0.005 -0.006,-0.009 -0.008,-0.014 -3.21,-0.581 -6.301,-1.942 -8.543,-4.385 -2.888,-3.146 -4.71,-7.013 -4.71,-11.37 v -2.374 c 0,-0.59 0.047,-1.184 0.118,-1.779 -0.07,-0.354 -0.136,-0.709 -0.204,-1.063 -0.687,-0.655 -1.304,-1.38 -1.831,-2.195 -1.421,-1.552 -2.381,-3.376 -2.878,-5.467 -0.67,-2.138 -0.765,-4.275 -0.287,-6.413 0.097,-2.139 0.733,-4.132 1.908,-5.978 0.029,-0.043 0.061,-0.084 0.089,-0.128 l -3.445,-10.145 c -0.854,-1.166 -1.675,-2.424 -2.438,-3.813 -1.117,-0.951 -2.236,-1.894 -3.356,-2.837 -14.298,7.409 -35.002,1.224 -42.005,-16.435 -4.355,-10.981 -2.883,-23.372 -4.494,-34.9 -1.976,-14.136 -2.766,-27.153 4.809,-39.893 7.544,-12.686 24.661,-8.701 29.39,3.841 2.466,6.54 4.932,13.081 7.398,19.621 2.707,5.227 4.833,10.67 6.196,16.435 1.261,5.328 0.236,9.747 -2.076,13.048 3.686,0.337 7.335,1.751 10.21,4.256 9.198,8.013 18.466,15.842 27.217,24.183 l 2.987,-1.798 c 1.377,2.209 2.884,4.416 4.486,6.617 0.288,1.356 -0.084,1.807 -0.574,2.028 5.114,5.272 9.998,10.783 14.453,16.757 0.786,1.055 1.337,2.202 1.722,3.395 1.099,1.25 2.294,2.919 3.572,5.156 1.474,4.967 2.843,9.196 4.228,13.063 2.583,2.441 5.253,4.818 6.778,8.344 1.623,3.753 1.056,7.212 1.538,11.099 0.471,3.802 3.739,6.992 5.423,10.587 0.582,1.244 0.881,2.468 0.967,3.651 1.167,1.175 2.507,3.054 3.269,4.326 0.665,3.063 -0.962,4.885 0.165,8.33 0.482,-0.039 1.16,0.25 2.163,1.146 0.303,0.882 1.205,2.577 0.989,2.727 0.237,0.334 1.489,1.652 2.926,3.384"
           style="fill:#79b758;fill-opacity:1;fill-rule:nonzero;stroke:none"
           id="path939" />
      </g>
      <g
         id="g941"
         transform="translate(1564.1382,845.5824)">
        <path
           d="m 0,0 c -4.915,3.821 -11.616,5.257 -16.76,1.273 0.156,8.775 -12.829,14.647 -17.882,5.238 -3.718,-6.926 -6.32,-14.024 -7.411,-21.814 -0.522,-3.725 -0.773,-7.41 -0.546,-11.17 0.103,-1.71 1.114,-7.403 1.155,-7.251 -0.675,-2.535 -3.594,-5.228 -4.864,-7.714 -1.951,-3.82 -3.462,-7.997 -4.387,-12.177 -0.686,-3.094 -1.012,-6.161 -1.087,-9.226 -3.669,-4.751 -6.529,-9.923 -6.851,-16.98 -0.118,-2.577 -0.12,-5.178 -0.078,-7.786 l -0.304,-0.65 c -0.044,-1.054 0.053,-1.973 0.361,-2.434 0.051,-1.477 0.133,-2.957 0.217,-4.439 -0.067,-0.095 -0.124,-0.198 -0.189,-0.295 -5.754,5.086 -17.135,2.919 -16.263,-6.57 1.157,-12.574 -8.302,-27.336 -13.11,-38.666 -1.272,-2.998 -1.028,-5.889 0.095,-8.313 -3.671,-1.266 -6.951,-3.441 -9.362,-6.963 -5.609,-8.197 -2.24,-18.248 -3.962,-27.414 -0.448,-2.385 -0.139,-4.795 0.826,-6.851 -6.862,-2.799 -10.88,-8.985 -12.526,-16.216 -4.9,3.617 -13.232,2.941 -15.344,-4.695 -1.136,-4.104 -1.616,-8.385 -1.865,-12.72 -4.135,-1.16 -6.884,-4.678 -7.177,-9.225 -0.162,-2.504 -0.323,-5.006 -0.484,-7.51 -0.089,-1.371 0.226,-2.722 0.816,-3.963 -2.611,-6.98 0.77,-16.968 6.675,-20.699 1.238,-0.783 2.734,-1.202 4.258,-1.295 2.249,-3.289 4.885,-6.272 8.417,-8.494 3.561,-2.238 7.137,-2.814 10.567,-2.289 5.207,0.154 10.103,3.142 14.154,6.219 11.261,8.555 17.104,22.371 18.36,36.189 0.63,6.928 1.637,12.614 3.214,18.9 0.196,-0.067 0.364,-0.164 0.571,-0.221 4.504,-1.237 11.154,1.542 11.868,6.739 0.961,7.001 3.454,13.162 8.339,18.336 3.19,3.376 3.278,7.404 1.692,10.648 3.236,6.2 7.367,12.002 9.881,18.612 1.317,3.468 2.112,7.012 2.6,10.593 0.693,0.022 1.371,0.112 2.017,0.29 5.453,1.498 7.601,6.71 6.738,11.867 -0.442,2.647 -0.669,5.316 -0.764,7.99 0.168,0.927 0.308,1.863 0.377,2.813 0.081,1.092 0.104,2.195 0.081,3.303 l -0.064,1.653 -0.079,1.211 c -0.033,0.38 -0.064,0.73 -0.09,1.061 0.011,0.457 -0.014,0.907 -0.082,1.347 0.347,0.852 0.674,1.715 1.051,2.552 0.566,0.634 1.082,1.176 1.502,1.479 0.122,0.705 0.22,1.441 0.287,2.164 0.96,1.851 1.978,3.682 3.123,5.479 3.417,5.362 7.797,10.107 9.936,16.199 2.126,6.051 -0.396,10.577 0.286,16.245 0.749,6.228 6.578,13.748 9.421,19.225 2.048,3.946 1.928,7.767 0.528,10.967 0.559,1.594 0.939,3.142 1.138,4.557 1.054,1.35 2.065,2.763 3.009,4.227 0.088,0.083 0.174,0.16 0.267,0.261 0.001,0.053 0.011,0.127 0.016,0.187 C 9.679,-24.545 12.731,-9.896 0,0"
           style="fill:#79b758;fill-opacity:1;fill-rule:nonzero;stroke:none"
           id="path943" />
      </g>
      <g
         id="g945"
         transform="translate(1435.8774,957.2982)">
        <path
           d="m 0,0 c 9.239,8.489 16.056,19.047 23.71,28.888 6.271,4.482 12.493,9.05 18.266,14.091 6.728,5.874 11.938,12.957 16.596,20.454 5.151,2.837 8.372,7.748 12.601,13.287 6.555,8.586 12.94,17.301 19.147,26.142 2.186,3.114 4.319,6.262 6.458,9.407 0.678,0.458 1.359,0.914 2.034,1.376 12.491,8.536 23.977,17.499 32.987,29.799 4.478,6.116 8.282,12.703 11.749,19.486 0.385,-0.349 0.787,-0.677 1.209,-0.983 -1.196,-37.432 -5.258,-74.571 -12.283,-111.353 -9.116,-34.565 -19.119,-70.389 -20.721,-105.96 -9.708,0.991 -19.448,1.271 -29.287,1.225 -11.786,-0.053 -29.502,-3.273 -39.604,3.593 -11.262,7.656 -21.607,17.144 -33.298,24.124 -9.774,5.837 -22.025,6.351 -32.679,10.928 C -15.139,-10.613 -7.013,-6.441 0,0 m 198.776,-24.364 c -22.451,6.928 -29.584,43.023 -30.75,63.184 -0.253,4.367 -4.684,5.959 -7.773,4.767 0.165,3.92 0.321,7.839 0.472,11.758 6.542,37.232 10.35,74.891 11.245,112.707 0.103,4.373 -1.531,7.642 -4.037,9.815 1.526,8.853 1.979,17.851 1.183,26.839 -0.35,3.963 -2.037,7.612 -4.75,10.118 0.423,1.777 0.834,3.556 1.268,5.33 4.127,16.876 -21.905,24.077 -26.038,7.178 -0.349,-1.427 -0.678,-2.857 -1.02,-4.286 -2.487,-0.481 -4.803,-1.656 -6.512,-3.648 -4.584,-5.343 -8.899,-10.971 -12.561,-16.992 -3.154,-5.185 -7.78,-12.249 -8.596,-18.306 -0.314,-2.337 -0.293,-4.647 0.164,-6.797 -3.425,-0.516 -6.689,-2.461 -8.983,-6.335 -8.501,-14.359 -17.396,-28.474 -26.73,-42.305 -1.248,-0.877 -2.495,-1.755 -3.716,-2.66 C 58.191,116.032 48.162,103.078 35.658,92.104 23.492,81.427 12.329,70.939 7.681,54.913 7.293,53.577 7.129,52.312 7.126,51.112 5.554,49.18 4.025,47.211 2.523,45.22 1.316,44.362 0.101,43.509 -1.09,42.642 -4.63,40.063 -6.295,36.581 -6.601,33.048 -10.424,28.102 -14.447,23.329 -19.094,19.094 -26.249,12.575 -35.53,9.098 -43.342,3.472 c -8.015,-5.773 -15.297,-12.617 -22.652,-19.229 -1.938,-1.046 -3.374,-2.481 -4.353,-4.146 -1.514,-1.847 -2.337,-3.819 -2.591,-5.791 -1.743,-0.279 -3.495,-0.628 -5.269,-1.147 -4.856,-1.417 -7.519,-4.79 -8.41,-8.597 -1.539,-0.789 -2.803,-2.206 -3.382,-4.39 -0.138,-0.523 -0.276,-1.044 -0.414,-1.567 -0.052,-0.194 -0.048,-0.382 -0.083,-0.576 -0.276,-0.008 -0.55,-0.006 -0.832,-0.033 -1.388,-0.132 -2.067,-1.309 -2.043,-2.399 -2.552,-0.02 -5.057,-0.927 -7.564,-0.736 -5.503,0.421 -5.476,-8.157 0,-8.575 2.324,-0.178 4.445,0.64 6.739,0.75 2.331,0.111 4.685,-0.196 6.965,-0.647 2.521,-0.5 4.352,1.046 5.049,2.939 1.183,-0.06 2.363,-0.133 3.529,-0.238 0.346,-0.111 0.701,-0.203 1.064,-0.279 1.442,-0.649 2.922,-1.167 4.489,-1.384 0.804,-0.112 1.448,0.199 1.917,0.669 18.091,-3.18 34.183,-11.674 49.111,-22.859 3.284,-2.461 6.521,-1.417 8.5,0.998 11.045,-5.148 21.384,-8.089 34.608,-9.16 17.404,-1.41 34.79,-3.042 52.149,-4.941 9.346,-1.023 18.684,-2.119 28.013,-3.291 5.142,-0.646 20.608,-0.218 22.545,-5.887 5.216,-15.26 27.042,-9.115 24.035,6.626 -0.513,2.69 -0.797,5.346 -0.97,7.999 1.365,4.799 1.336,9.935 -0.373,15.236 -0.158,0.487 -0.372,0.904 -0.563,1.348 1.127,4.935 2.482,9.848 3.668,14.862 2.799,11.842 4.741,23.851 6.291,35.914 1.593,12.41 2.614,24.869 3.362,37.348 3.985,-23.45 18.132,-50.419 40.555,-57.34 6.606,-2.039 5.61,8.655 -0.972,10.687"
           style="fill:#cbeaeb;fill-opacity:1;fill-rule:nonzero;stroke:none"
           id="path947" />
      </g>
      <g
         id="g949"
         transform="translate(392.8404,508.0854)">
        <path
           d="m 0,0 c 2.45,19.603 4.627,39.207 8.44,57.721 7.35,38.392 14.43,76.509 22.054,113.81 1.089,5.447 0.816,4.903 2.177,4.63 h 0.272 c 2.724,-0.272 4.358,-2.725 4.086,-6.808 -0.273,-8.712 -5.175,-28.587 -2.722,-30.221 l 1.36,0.545 c 2.723,4.355 19.604,23.414 24.778,27.771 7.894,6.808 13.612,8.168 20.964,4.628 7.896,-3.266 11.979,-9.802 12.524,-20.692 C 95.84,125.518 90.938,101.829 79.503,80.593 77.87,77.052 75.418,73.785 73.785,71.063 64.528,56.088 49.28,58.266 38.118,65.617 c -0.817,1.089 -1.634,1.905 -2.451,3.267 -1.088,1.635 -1.36,3.268 0.273,2.452 9.801,-7.08 23.414,-4.902 30.766,5.172 11.709,16.337 19.605,42.747 20.149,68.341 -0.272,4.357 0.272,9.801 -1.363,15.792 -2.994,8.169 -8.166,9.529 -14.701,3.811 C 59.626,155.739 49.552,145.394 39.75,132.325 31.31,120.344 26.138,107.003 23.414,87.672 18.787,56.904 13.612,26.411 8.712,-4.085 8.168,-7.079 7.35,-7.896 5.444,-7.352 1.361,-6.535 -0.544,-4.357 0,0"
           style="fill:#000000;fill-opacity:1;fill-rule:nonzero;stroke:none"
           id="path951" />
      </g>
      <g
         id="g953"
         transform="translate(558.1064,645.3099)">
        <path
           d="m 0,0 c 5.444,6.535 10.074,15.792 11.163,22.6 0.816,4.899 -0.545,9.256 -4.358,11.434 -3.266,2.725 -8.44,2.178 -14.157,-1.633 -6.263,-4.083 -11.709,-9.529 -14.976,-14.703 -5.99,-8.713 -10.618,-22.325 -13.886,-32.399 -0.817,-2.996 4.63,-3.814 10.892,-2.18 C -16.609,-14.429 -9.257,-9.529 0,0 m -48.193,-54.727 c -0.545,7.624 -1.906,15.248 -0.273,25.323 3.539,22.599 9.802,37.844 23.961,56.903 4.628,5.719 9.801,10.076 14.976,12.799 10.89,6.535 22.869,0.271 25.591,-13.07 4.085,-20.693 -13.34,-43.836 -36.756,-49.008 -10.618,-2.45 -16.881,0 -17.97,-2.997 -1.361,-4.9 -1.906,-10.891 -1.906,-17.97 0.273,-10.346 2.722,-18.242 8.169,-25.594 7.351,-9.802 25.866,-9.802 43.291,0 13.34,8.168 18.515,12.798 30.222,27.501 1.908,2.723 2.996,5.172 3.813,4.901 1.089,-0.273 1.633,-1.089 1.361,-4.083 -0.545,-4.63 -2.178,-7.897 -3.811,-10.893 -12.254,-16.063 -26.413,-26.139 -41.931,-29.678 -26.682,-5.99 -46.288,4.903 -48.737,25.866"
           style="fill:#000000;fill-opacity:1;fill-rule:nonzero;stroke:none"
           id="path955" />
      </g>
      <g
         id="g957"
         transform="translate(644.6831,586.7728)">
        <path
           d="m 0,0 c 12.526,18.242 20.42,50.369 22.872,68.611 0.272,3.269 -1.633,-0.545 -4.63,2.452 -0.272,0.272 -1.905,2.995 -2.45,4.9 -5.446,13.343 -16.336,14.975 -26.955,4.63 -18.786,-18.787 -22.055,-43.292 -25.593,-66.708 -0.272,-7.897 1.36,-20.148 7.351,-26.955 3.267,-3.539 7.624,-4.356 11.435,-2.451 C -10.89,-12.526 -5.991,-8.713 0,0 m -35.94,-11.981 c -5.99,8.985 -8.985,19.331 -8.44,28.862 1.361,26.955 11.979,53.638 27.771,69.702 11.982,12.523 28.86,7.35 37.301,-4.63 2.452,-3.538 3.813,-4.083 3.813,-7.351 0.545,2.722 1.089,6.535 1.634,8.985 3.813,26.41 9.529,42.202 14.431,68.613 0.816,3.538 0.544,5.446 2.722,5.174 2.177,0 2.994,-0.816 4.085,-4.901 1.089,-3.267 1.361,-7.624 0.272,-12.525 C 42.475,110.542 37.301,81.953 28.044,46.83 c -4.9,-18.515 -4.627,-32.673 0.272,-47.102 3.813,-10.893 18.242,-13.343 26.411,-4.63 6.535,7.08 12.253,15.52 15.792,23.417 l 1.633,2.721 1.089,-3.266 C 74.06,12.523 71.335,9.257 68.069,2.45 65.075,-2.452 63.167,-5.174 60.717,-8.44 55.543,-15.792 47.103,-18.789 38.664,-16.337 29.677,-13.887 23.961,-8.169 20.692,1.089 19.604,4.627 18.787,14.701 16.337,9.802 L 14.976,6.805 15.248,7.077 C 7.624,-4.085 1.633,-12.798 -3.539,-17.426 c -11.437,-10.076 -23.144,-8.44 -32.401,5.445"
           style="fill:#000000;fill-opacity:1;fill-rule:nonzero;stroke:none"
           id="path959" />
      </g>
      <g
         id="g961"
         transform="translate(714.9233,590.8558)">
        <path
           d="m 0,0 c -3.269,22.055 2.995,40.025 11.707,59.356 5.719,12.796 12.251,22.872 23.144,31.582 5.716,4.358 10.618,5.447 16.881,3.541 10.891,-2.45 20.42,-13.614 20.965,-23.96 0,-2.995 -1.089,-5.991 -1.634,-5.991 -2.452,-0.272 -4.085,1.364 -4.357,4.358 -0.272,3.538 0.544,7.079 -3.539,12.251 C 53.638,93.118 41.112,89.85 29.133,73.241 15.791,54.727 9.257,35.123 8.168,10.891 8.985,0.816 7.894,-7.352 13.885,-14.976 c 3.541,-4.355 7.352,-5.171 12.798,-3.539 6.261,2.723 9.257,7.08 12.252,11.436 11.979,16.608 17.153,34.85 21.782,50.099 1.906,6.535 2.45,6.807 5.445,5.99 2.996,-0.544 3.813,-2.724 2.722,-8.168 -1.906,-11.165 -7.35,-23.961 -6.805,-37.575 0.272,-6.261 -1.089,-15.246 7.079,-18.515 8.438,-3.267 20.42,6.535 23.686,10.349 10.074,12.523 11.165,14.428 12.254,17.424 l 2.177,4.084 c 1.906,-2.45 2.178,-5.718 1.089,-8.169 -4.902,-9.529 -11.707,-18.786 -17.969,-25.049 -12.524,-11.707 -27.772,-9.53 -32.946,4.63 -1.361,2.994 -3.539,13.884 -6.807,6.533 l -6.261,-9.257 C 35.94,-25.866 28.588,-29.133 19.059,-25.866 8.713,-22.6 2.178,-13.887 0,0"
           style="fill:#000000;fill-opacity:1;fill-rule:nonzero;stroke:none"
           id="path963" />
      </g>
      <g
         id="g965"
         transform="translate(949.0688,545.931)">
        <path
           d="m 0,0 c -7.08,4.899 -8.713,12.251 -9.802,21.509 -1.089,5.174 -0.272,10.892 0.273,16.064 0.544,3.269 2.449,8.168 1.361,9.257 H -9.802 C -11.979,44.652 -24.777,27.771 -37.301,22.053 -57.995,12.251 -73.513,11.707 -87.4,20.42 c -54.454,31.584 -35.94,112.449 0,158.735 14.976,19.061 31.04,29.679 49.555,32.946 15.52,2.724 28.588,-1.906 37.029,-13.613 6.262,-8.169 1.36,-28.591 -7.897,-32.401 -4.627,-2.45 -4.627,-2.178 -5.446,-1.089 0,0 0.274,1.089 1.363,2.722 2.994,4.63 4.9,9.258 6.533,15.248 3.541,14.431 -7.077,24.233 -24.503,22.325 -6.263,-0.816 -16.881,-5.716 -22.055,-8.439 -22.599,-14.43 -34.579,-28.862 -46.014,-55 -13.614,-32.126 -15.52,-53.093 -7.352,-83.586 7.624,-26.957 27.772,-40.298 50.644,-33.491 27.772,8.441 44.38,32.673 50.371,50.915 1.905,6.261 8.985,20.965 8.439,24.776 -0.817,2.996 -4.083,4.085 -8.167,2.996 -8.44,-2.451 -17.425,-1.089 -26.41,0.272 -3.269,0.545 -5.446,0.817 -4.902,4.356 0.272,1.907 0,2.179 4.083,1.636 12.254,-1.636 23.961,0.271 35.123,2.177 9.804,1.633 13.615,-2.724 11.165,-12.526 C 11.163,81.682 4.085,65.889 2.178,48.191 0.544,33.762 -3.811,18.515 3.541,3.811 4.902,0.816 4.902,-1.089 3.267,-1.089 2.722,-1.361 2.722,-1.634 0,0"
           style="fill:#000000;fill-opacity:1;fill-rule:nonzero;stroke:none"
           id="path967" />
      </g>
      <g
         id="g969"
         transform="translate(987.4482,618.6273)">
        <path
           d="m 0,0 c 2.45,15.521 5.174,31.856 17.97,47.377 8.985,11.162 18.242,18.786 32.673,17.97 11.435,-0.544 21.781,-11.437 19.059,-20.422 -0.544,-2.45 -1.361,-3.539 -2.45,-3.539 -1.905,0.272 -4.085,1.906 -4.902,4.63 -0.816,1.633 1.089,3.539 -2.722,9.257 -2.177,3.539 -8.985,5.172 -15.248,3.539 C 20.966,50.916 16.064,31.585 11.163,11.709 7.896,-2.994 7.079,-11.707 10.074,-26.139 c 2.179,-11.162 7.624,-18.513 15.52,-20.964 8.985,-2.994 15.792,2.995 20.692,8.168 13.886,14.974 18.516,35.124 22.872,53.638 1.089,4.628 0,8.442 -0.273,13.068 -0.544,1.908 -0.272,1.908 1.906,1.091 3.541,-1.091 5.99,-4.63 5.99,-9.257 C 75.965,-10.346 67.796,-32.127 51.188,-48.464 44.925,-53.91 34.034,-55.815 24.505,-53.093 3.541,-46.83 -4.628,-29.404 0,0"
           style="fill:#000000;fill-opacity:1;fill-rule:nonzero;stroke:none"
           id="path971" />
      </g>
      <g
         id="g973"
         transform="translate(1117.3188,500.1898)">
        <path
           d="m 0,0 c 2.18,2.449 4.085,4.899 5.174,7.624 7.352,14.429 8.168,29.949 11.707,45.741 v 0.273 c 0,0.816 1.089,6.534 1.089,7.351 L 14.159,58.81 C 12.526,58.265 -6.261,48.191 -11.435,43.563 -21.509,35.123 -28.588,26.138 -30.222,11.707 -31.038,5.172 -25.594,-2.452 -17.426,-5.991 -11.435,-8.169 -5.172,-6.264 0,0 m -36.484,7.896 c -0.273,1.905 0,3.811 0,4.9 0,13.342 7.896,21.782 15.792,30.223 9.529,10.619 24.505,17.698 35.395,26.138 2.178,1.362 4.63,1.905 5.174,4.628 1.361,8.168 3.811,21.511 4.356,27.227 v -0.272 c 2.996,8.985 -7.08,-5.989 -7.897,-6.807 C 11.709,87.672 4.902,83.042 -5.172,80.048 c -6.535,-2.178 -18.242,0.272 -21.783,5.99 -3.811,5.989 -4.356,16.063 -3.811,24.232 2.178,32.4 16.337,59.083 38.934,73.514 6.808,4.628 16.065,1.905 22.056,-0.816 6.807,-2.996 10.89,-8.441 11.434,-15.521 0,-2.177 -0.816,-3.268 -2.45,-3.54 -0.272,0 -0.816,1.635 -1.361,2.451 -0.544,0.818 -0.816,2.995 -2.451,5.445 -6.806,8.169 -15.791,8.713 -26.411,2.452 -19.603,-12.254 -25.319,-33.762 -29.677,-51.733 -1.906,-8.44 -4.083,-20.693 -0.544,-29.678 1.905,-3.811 8.44,-6.533 14.431,-5.717 8.44,1.089 15.245,6.261 21.236,16.882 5.718,8.712 11.979,28.043 15.793,35.667 2.721,4.355 2.994,4.355 4.899,3.811 2.18,-0.545 3.269,-3.266 2.452,-6.807 -0.817,-5.445 -3.813,-22.87 -4.902,-27.499 -1.089,-6.264 -2.449,-16.337 -3.266,-22.326 -0.545,-3.813 -1.089,-5.718 0.817,-7.08 h 0.272 c 2.177,-0.816 7.079,2.723 7.896,2.995 h 0.272 c 10.618,5.446 21.509,13.886 29.949,22.328 3.269,3.538 2.18,4.627 3.541,3.265 2.178,-1.905 2.178,-5.446 0.544,-7.895 C 62.625,87.399 47.921,78.959 30.224,68.066 26.957,66.161 26.138,64.527 25.322,60.172 22.872,40.295 19.333,26.138 15.248,12.796 10.62,-2.452 4.085,-10.076 -6.805,-12.799 -17.153,-15.793 -35.94,-5.175 -36.484,7.896"
           style="fill:#000000;fill-opacity:1;fill-rule:nonzero;stroke:none"
           id="path975" />
      </g>
      <g
         id="g977"
         transform="translate(1187.8335,590.8558)">
        <path
           d="m 0,0 c -3.269,22.055 2.994,40.025 11.707,59.356 5.719,12.796 12.251,22.872 23.144,31.582 5.716,4.358 10.618,5.447 16.881,3.541 10.89,-2.45 20.419,-13.614 20.964,-23.96 0,-2.995 -1.089,-5.991 -1.633,-5.991 -2.452,-0.272 -4.085,1.364 -4.358,4.358 -0.271,3.538 0.545,7.079 -3.538,12.251 C 53.638,93.118 41.111,89.85 29.133,73.241 15.79,54.727 9.257,35.123 8.168,10.891 8.984,0.816 7.894,-7.352 13.885,-14.976 c 3.541,-4.355 7.351,-5.171 12.798,-3.539 6.26,2.723 9.256,7.08 12.251,11.436 11.979,16.608 17.153,34.85 21.783,50.099 1.905,6.535 2.45,6.807 5.444,5.99 2.996,-0.544 3.814,-2.724 2.722,-8.168 -1.905,-11.165 -7.35,-23.961 -6.805,-37.575 0.273,-6.261 -1.089,-15.246 7.079,-18.515 8.439,-3.267 20.42,6.535 23.687,10.349 10.074,12.523 37.093,44.679 38.182,47.675 l 6.097,11.61 c 1.905,-2.45 8.63,6.913 7.541,4.464 -5.002,-23.072 -48.007,-69.196 -54.27,-75.459 -12.524,-11.707 -27.772,-9.53 -32.946,4.63 -1.361,2.994 -3.539,13.884 -6.807,6.533 L 44.38,-14.703 C 35.939,-25.866 28.588,-29.133 19.059,-25.866 8.713,-22.6 2.178,-13.887 0,0"
           style="fill:#000000;fill-opacity:1;fill-rule:nonzero;stroke:none"
           id="path979" />
      </g>
      <g
         id="g981"
         transform="translate(1629.8638,1279.5297)">
        <path
           d="m 0,0 c 0.146,1.646 -2.866,1.849 -3.531,0.234 -4.812,-11.682 -9.77,-32.6 -29.521,-35.014 -24.497,-2.995 -32.116,20.019 -30.744,35.464 1.18,13.282 -8.935,9.616 -8.817,0.585 0.242,-18.529 7.15,-43.659 35.881,-42.492 C -12.431,-40.235 -1.358,-15.256 0,0"
           style="fill:#000000;fill-opacity:1;fill-rule:nonzero;stroke:none"
           id="path983" />
      </g>
      <g
         id="g985"
         transform="translate(1880.7144,1168.64)">
        <path
           d="m 0,0 28.337,23.332 23.785,-4.664 c 0.445,-0.087 0.886,-0.08 1.304,0.007 1.252,0.262 2.288,1.248 2.55,2.584 0.349,1.779 -0.811,3.504 -2.59,3.852 l -24.224,4.751 c -0.56,0.303 -1.194,0.434 -1.821,0.384 L 2.947,57.716 c -0.656,0.739 -1.61,1.142 -2.598,1.099 -0.99,-0.041 -1.903,-0.527 -2.493,-1.322 L -21.101,31.972 c -1.082,-1.455 -0.778,-3.512 0.677,-4.594 1.457,-1.081 3.513,-0.776 4.594,0.679 L 0.72,50.336 21.872,26.516 -3.481,5.639 -16.113,14.053 c -1.509,1.006 -3.547,0.597 -4.553,-0.912 -1.005,-1.509 -0.597,-3.547 0.912,-4.553 l 12.633,-8.414 -3.167,-7.045 c -0.743,-1.653 -0.006,-3.597 1.648,-4.341 0.658,-0.296 1.361,-0.356 2.016,-0.22 0.994,0.208 1.877,0.872 2.325,1.869 z"
           style="fill:#000000;fill-opacity:1;fill-rule:nonzero;stroke:none"
           id="path987" />
      </g>
      <g
         id="g989"
         transform="translate(1623.8989,1331.225)">
        <path
           d="m 0,0 c -3.732,5.56 -9.635,2.076 -11.653,-3.142 -0.035,-0.088 -0.033,-0.166 -0.049,-0.249 -1.354,-3.263 -0.848,-7.707 0.474,-10.846 2.184,-5.185 7.841,-8.753 11.909,-3.065 C 4.238,-12.326 3.258,-4.854 0,0"
           style="fill:#000000;fill-opacity:1;fill-rule:nonzero;stroke:none"
           id="path991" />
      </g>
      <g
         id="g993"
         transform="translate(1576.355,1339.3763)">
        <path
           d="m 0,0 c -0.498,0.212 -1.712,0.616 -3.342,0.466 -1.581,-0.048 -6.291,-0.656 -8.972,-5.997 -1.402,-2.221 -1.975,-4.967 -1.497,-8.336 0.91,-6.39 5.02,-10.965 11.889,-9.43 C 8.97,-20.861 8.108,-2.441 0,0"
           style="fill:#000000;fill-opacity:1;fill-rule:nonzero;stroke:none"
           id="path995" />
      </g>
      <g
         id="g997"
         transform="translate(1587.478,1390.9222)">
        <path
           d="m 0,0 c -38.551,0.253 -70.202,-43.509 -70.556,-97.552 -0.354,-54.043 30.721,-98.214 69.273,-98.467 38.549,-0.252 70.2,43.508 70.554,97.552 C 69.625,-44.424 38.55,-0.252 0,0 m -1.334,-203.773 c -43.127,0.282 -77.904,47.958 -77.522,106.276 C -78.475,-39.178 -43.076,8.038 0.051,7.756 43.178,7.474 77.953,-40.202 77.571,-98.521 77.189,-156.84 41.793,-204.056 -1.334,-203.773"
           style="fill:#000000;fill-opacity:1;fill-rule:nonzero;stroke:none"
           id="path999" />
      </g>
      <g
         id="g1001"
         transform="translate(1698.8472,1098.5267)">
        <path
           d="m 0,0 c 4.451,5.469 11.34,8.169 19.227,3.864 4.016,-1.615 6.406,-4.787 7.168,-9.517 -2.662,-0.595 -5.328,-0.615 -7.998,-0.058 -3.807,0.49 -7.776,2.024 -11.392,3.205 C 4.646,-1.735 2.31,-0.898 0,0 m 278.556,215.609 c -2.097,-0.101 -4.252,-0.451 -6.459,-1.107 -0.699,-0.208 -1.256,-0.571 -1.707,-1.017 -5.786,-1.818 -3.07,-11.092 3.182,-9.708 2.532,0.561 5.098,1.168 7.657,1.844 34.979,-6.64 18.641,-71.327 6.961,-92.199 C 274.876,89.627 254.653,76.258 232.479,64.416 L 201.928,44.022 c 0.676,0.404 1.45,0.855 2.286,1.331 0.692,-2.624 3.103,-4.818 6.122,-3.652 8.656,3.341 17.151,7.122 25.349,11.361 2.377,-1.009 4.386,-2.76 5.808,-5.507 5.298,-10.232 -4.871,-28.454 -9.798,-36.932 -10.127,-17.425 -23.327,-33.09 -38.223,-46.62 -2.8,-2.543 -5.683,-4.975 -8.605,-7.35 l 16.246,86.151 c 0.001,0.002 0.001,0.003 0.001,0.005 0.168,0.578 1.516,4.835 6.052,10.252 3.825,4.568 34.013,26.211 53.368,39.646 0.835,0.579 1.35,1.517 1.388,2.533 0.039,1.016 -0.402,1.989 -1.191,2.631 l -50.947,41.456 c -0.008,0.006 -0.013,0.015 -0.017,0.025 l -12.928,36.518 c -0.412,1.162 -1.448,1.989 -2.673,2.132 -1.224,0.144 -2.424,-0.423 -3.093,-1.458 l -24.027,-37.267 c -0.006,-0.007 -0.013,-0.014 -0.022,-0.018 l -60.09,-30.86 c -0.908,-0.465 -1.542,-1.333 -1.711,-2.337 -0.17,-1.006 0.145,-2.034 0.849,-2.771 l 14.976,-15.684 c 0.019,-0.021 0.022,-0.052 0.003,-0.074 -7.38,-8.387 -21.792,-24.634 -24.427,-26.97 -3.754,-3.329 -5.526,-5.209 -5.6,-5.288 -0.865,-0.922 -1.114,-2.264 -0.635,-3.435 0.477,-1.171 1.594,-1.955 2.858,-2.008 28.377,-1.188 74.904,-3.602 79.572,-5.044 1.909,-0.899 4.317,0.229 4.618,2.651 0.158,1.271 -0.58,2.491 -1.698,3.117 -1.137,0.636 -3.468,1.699 -43.19,3.856 -11.938,0.65 -23.796,1.204 -31.255,1.54 -0.049,0.002 -0.074,0.053 -0.038,0.087 4.509,4.271 24.338,26.861 26.641,29.49 1.105,1.26 1.065,3.154 -0.091,4.365 l -14.015,14.677 c -0.026,0.028 -0.019,0.072 0.015,0.088 l 56.943,29.243 c 0.514,0.264 0.95,0.66 1.264,1.145 l 20.866,32.362 c 0.024,0.039 0.084,0.032 0.099,-0.011 l 10.997,-31.06 c 0.201,-0.57 0.556,-1.074 1.025,-1.455 L 253.265,95.61 c 0.029,-0.023 0.031,-0.066 0,-0.087 -11.883,-8.3 -46.153,-32.454 -51.057,-38.31 -5.908,-7.057 -7.33,-12.677 -7.389,-12.913 -0.013,-0.056 -0.025,-0.112 -0.036,-0.168 l -17.625,-93.463 c -26.593,-19.602 -57.527,-32.585 -90.316,-37.985 -0.301,-0.05 -0.568,-0.131 -0.829,-0.215 -2.873,-0.731 -15.632,-4.08 -20.774,-7.173 -4.565,-1.141 -9.011,-2.714 -13.187,-4.794 -16.76,16.256 -32.102,34.038 -45.096,54.397 -5.533,8.67 -11.732,18.391 -12.22,28.985 -0.064,1.404 0.032,2.83 0.229,4.247 9.588,-4.045 19.723,-6.908 28.873,-6.291 11.185,0.754 19.177,10.344 12.704,20.817 -7.65,12.379 -26.347,17.46 -38.729,9.836 -3.381,-2.083 -6.061,-4.806 -8.137,-7.922 -3.364,1.641 -6.685,3.371 -9.911,5.277 -16.888,9.973 -30.448,23.782 -42.602,39.006 -4.644,5.817 -9.031,12.025 -13.491,18.203 13.706,24.987 30.204,47.349 48.749,67.775 l 41.848,40.357 c 18.52,15.824 38.214,30.53 58.654,44.509 29.926,20.466 60.914,40.089 94.673,53.638 31.07,12.469 68.559,21.704 101.886,13.555 18.31,-4.476 35.214,-16.144 38.294,-35.882 3.282,-21.033 -12.139,-30.405 -29.22,-35.4 M 155.054,-166.55 c -5.636,0.166 -11.259,0.098 -16.783,-0.497 -0.747,-0.08 -1.399,-0.267 -2.004,-0.5 -11.903,8.8 -23.799,17.573 -35.472,26.571 0.602,0.711 1.223,1.408 1.802,2.139 6.179,7.795 16.253,22.804 13.717,33.541 -1.382,5.859 -7.247,8.896 -13.654,10.546 25.53,6.035 49.924,16.639 71.79,31.062 z m -96.219,60.634 c 8.215,3.327 16.58,5.53 25.804,5.479 4.766,-0.026 13.134,0.25 17.389,-2.426 9.164,-5.765 6.321,-13.039 2.018,-20.598 -2.62,-4.602 -5.886,-8.775 -9.587,-12.588 -12.271,9.631 -24.231,19.577 -35.624,30.133 m -7.716,-56.947 c -36.565,-15.06 -128.704,-25.765 -140.295,29.244 -0.05,0.439 -0.15,0.926 -0.349,1.501 -4.068,11.744 -5.042,35.531 -5.239,42.101 4.999,52.374 7.029,104.775 0.454,157.257 7.308,-10.291 15.593,-20.118 23.2,-29.501 12.537,-15.465 27.357,-28.609 44.599,-38.627 3.49,-2.027 7.354,-4.194 11.442,-6.285 -1.207,-6.061 -0.954,-12.506 0.517,-18.364 4.53,-18.032 17.85,-34.333 29.147,-48.653 12.65,-16.034 26.816,-30.887 41.801,-44.748 9.349,-8.646 19.057,-17.006 29.009,-25.115 -10.438,-8.011 -22.734,-14.052 -34.286,-18.81 M -12.696,150.416 -23.56,139.187 c 3.557,3.805 7.169,7.556 10.864,11.229 m -148.397,-539.338 c -9.231,-21.028 -18.96,-41.836 -28.569,-62.692 -4.813,-10.447 -9.626,-20.893 -14.439,-31.34 -4.656,-10.106 -8.809,-21.802 -16.162,-30.359 -7.793,-9.071 -19.36,-12.032 -31.049,-11.867 -19.796,0.28 -24.794,18.428 -20.538,34.898 2.571,9.941 6.741,20.57 12.676,28.979 1.699,2.407 4.211,4.792 7.116,6.815 -2.093,-4.422 -4.15,-8.868 -6.045,-13.408 -3.601,-8.626 -8.904,-23.4 -2.718,-32.103 5.718,-8.049 16.932,-5.635 24.378,-1.398 10.02,5.701 17.079,16.906 20.121,27.808 4.619,16.554 -3.659,31.536 -17.927,34.201 5.155,12.538 9.646,25.292 14.048,38.313 8.863,26.221 17.825,52.413 26.513,78.694 4.466,13.513 8.954,27.02 13.456,40.521 2,6.002 3.886,12.028 5.772,18.066 1.082,3.46 3.513,15.565 6.43,20.809 1.312,0.002 2.571,0.571 3.34,1.819 0.211,0.345 0.424,0.688 0.636,1.033 0.236,0.382 0.364,0.814 0.444,1.255 14.918,-3.344 29.085,-8.924 41.531,-18.56 0.909,-0.705 1.889,-1.086 2.847,-1.213 -8.252,-45.268 -23.383,-88.181 -41.861,-130.271 m -83.279,-72.819 c 2.1,4.195 4.062,8.416 5.951,12.654 6.598,0.565 12.367,-2.538 13.65,-12.391 1.371,-10.532 -6.293,-23.834 -14.5,-29.701 -4.541,-3.246 -5.933,-4.47 -10.7,-1.182 -5.049,3.482 -3.658,5.33 -2.298,11.116 1.613,6.864 4.756,13.232 7.897,19.504 m 8.773,222.126 c -6.518,-9.091 -12.506,-18.546 -18.214,-28.162 -11.113,-18.723 -21.094,-38.082 -31.945,-56.952 -11.234,-19.539 -23.429,-38.649 -38.621,-55.382 -13.369,-14.725 -29.209,-27.777 -39.269,-45.197 -4.347,-7.526 -6.76,-15.863 -10.593,-23.625 -6.564,-13.289 -20.963,-19.667 -31.232,-5.341 -6.673,9.308 -5.889,22.028 -4.765,32.868 1.378,13.287 3.811,30.378 12.999,40.779 2.711,3.068 6.006,5.125 9.388,6.214 -8.797,-16.109 -26.342,-52.008 -0.971,-56.236 21.213,-3.538 34.517,30.867 31.601,47.127 -1.596,8.906 -6.652,15.112 -13.104,18.421 3.758,6.393 7.617,12.726 11.541,19.017 13.329,21.374 27.32,42.354 39.462,64.444 6.045,11 11.567,22.282 16.415,33.861 4.041,9.653 7.047,19.71 12.304,28.701 17.409,-9.642 34.928,-12.729 54.681,-13.689 1.747,-0.085 3.509,-0.16 5.276,-0.232 -1.87,-1.83 -3.327,-4.349 -4.953,-6.616 M -378.031,-378.61 c 0.671,1.223 1.367,2.433 2.05,3.651 4.269,-2.075 7.441,-6.395 7.871,-13.129 0.541,-8.505 -5.453,-27.86 -15.143,-30.442 -14.464,-3.854 -3.123,23.416 -2.136,25.599 2.209,4.887 4.782,9.62 7.358,14.321 m 29.643,381.43 c -5.267,-0.831 -15.416,-3.02 -19.719,1.115 -10.055,9.663 0.932,12.69 6.048,13.985 12.37,3.13 31.136,-0.72 31.774,-11.617 -6.007,-1.313 -12.046,-2.528 -18.103,-3.483 m 662.455,224.185 c 6.621,12.083 5.457,27.15 0.007,39.432 -15.168,34.18 -58.493,37.292 -90.716,33.117 C 182.549,294.265 144.61,277.223 109.557,256.292 74.759,235.515 40.856,211.722 9.433,186.009 l -7.09,-5.865 C -2.94,175.676 -8.09,171.08 -13.096,166.354 l -5.098,-4.854 c 0.006,-0.012 0.011,-0.024 0.017,-0.037 -1.652,-1.619 -3.277,-3.263 -4.896,-4.911 l -6.931,-7.231 -3.853,-4.135 c 0.004,-0.01 0.011,-0.019 0.016,-0.029 -18.973,-21.069 -35.353,-44.314 -48.767,-69.615 -4.854,6.389 -9.981,12.505 -15.746,17.894 0,0 -3.543,-1.338 -9.488,-2.132 -0.016,-0.695 0.115,-1.424 0.422,-2.166 1.892,-25.87 5.235,-51.613 6.329,-77.565 1.221,-28.975 -0.032,-57.803 -2.484,-86.681 -4.82,-56.744 -11.265,-113.685 -18.778,-170.162 -29.553,19.753 -65.531,19.936 -100.405,20.943 -11.198,0.323 -22.524,0.403 -33.608,2.156 -11.118,1.759 -20.712,6.054 -30.231,11.429 -0.018,0.099 -0.033,0.186 -0.054,0.29 -0.465,2.271 -3.241,3.535 -5.37,2.867 -0.071,0.043 -0.142,0.083 -0.212,0.125 -18.969,11.434 -37.431,17.89 -59.232,21.419 -0.171,0.909 -0.671,1.774 -1.384,2.426 9.057,9.001 21.259,16.618 29.914,24.401 11.568,10.401 22.683,21.338 33.908,32.103 22.918,21.978 44.339,45.798 65.056,69.841 19.734,22.901 38.783,46.404 56.966,70.555 18.583,24.681 38.943,50.042 53.522,77.449 l -12.134,0.6 c 0.064,-0.011 0.129,-0.024 0.194,-0.035 -16.451,-21.008 -30.86,-43.865 -46.985,-65.094 -19.789,-26.052 -40.37,-51.511 -61.8,-76.23 -0.048,-0.056 -0.098,-0.111 -0.146,-0.165 -0.334,-0.092 -0.675,-0.221 -1.018,-0.392 -46.838,-23.297 -100.987,-30.123 -149.481,-7.157 -2.378,1.126 -4.726,2.327 -7.048,3.579 23.631,6.992 46.331,18.829 63.229,35.233 4.623,4.488 8.641,10.041 10.899,15.999 6.241,1.678 12.377,3.463 18.287,5.107 20.372,5.665 40.348,12.66 59.845,20.84 19.936,8.363 39.284,18.057 57.913,29.028 18.767,11.051 39.99,23.273 54.893,39.467 -2.894,0.438 -5.933,1.088 -9.086,2.007 -13.246,-7.723 -25.577,-17.372 -38.704,-25.256 -15.2,-9.131 -30.823,-17.555 -46.869,-25.105 -30.33,-14.27 -61.956,-25.559 -94.508,-33.524 -0.411,3.67 -1.696,7.324 -4.139,10.824 -7.907,11.327 -23.466,13.533 -36.238,12.33 -11.915,-1.123 -26.962,-5.811 -28.257,-19.794 -1.379,-14.905 14.217,-22.87 26.956,-22.698 6.748,0.091 13.66,0.961 20.586,2.26 -17.432,-19.205 -44.189,-30.52 -70.353,-37.01 -11.044,7.908 -20.939,17.397 -28.907,28.418 -14.49,20.043 -30.536,56.985 -3.311,73.638 6.818,4.169 0.396,15.092 -6.254,10.7 -0.878,-0.58 -1.708,-1.187 -2.515,-1.806 -0.262,0.494 -0.585,0.981 -1.043,1.441 -13.967,14.054 -28.397,28.117 -38.623,45.254 -11.061,18.537 -15.41,39.605 -17.115,60.9 -1.478,18.458 1.364,38.652 -4.529,56.437 -6.112,18.448 -17.485,33.583 -21.518,53.042 -8.847,42.693 -9.665,90.475 -3.423,133.546 5.612,38.722 19.334,77.285 44.929,107.412 13.998,16.477 35.074,33.14 58.185,28.438 19.995,-4.068 37.423,-26.619 33.97,-47.614 -0.753,-2.133 -1.363,-4.318 -1.795,-6.526 -0.222,-0.565 -0.446,-1.129 -0.703,-1.687 -1.504,-3.268 1.509,-5.654 3.967,-5.21 1.926,-0.153 3.968,0.747 4.472,2.915 4.264,18.32 19.683,31.444 36.632,16.99 10.519,-8.97 15.124,-22.113 18.869,-35.005 6.432,-22.144 9.014,-45.568 1.671,-67.144 -3.46,-3.73 -6.053,-8.302 -7.364,-13.493 -1.094,-4.333 3.634,-6.798 6.698,-5.323 0.767,0.247 1.493,0.786 2.05,1.734 1.99,3.392 3.741,6.986 5.336,10.685 8.302,8.891 23.368,8.828 34.206,1.799 14.473,-9.386 20.513,-26.517 24.595,-42.441 8.226,-32.084 9.635,-65.498 4.928,-98.236 -0.135,-0.937 0.283,-2.157 1.473,-2.691 8.604,-4.123 8.451,20.001 8.464,20.616 -0.004,-0.004 -0.008,-0.008 -0.013,-0.012 1.323,16.311 1.26,32.684 -0.503,49.036 -2.233,20.711 -5.777,43.316 -16.068,61.74 -7.939,14.211 -22.401,26.832 -39.478,26.99 -4.388,0.041 -8.632,-0.803 -12.54,-2.358 7.859,28.638 0.252,61.948 -14.126,86.57 -7.236,12.393 -20.932,25.534 -36.464,23.262 -6.49,-0.949 -11.799,-4.032 -15.955,-8.325 -0.056,0.603 -0.079,1.189 -0.169,1.813 -1.271,8.84 -4.897,17.045 -10.53,23.97 -10.816,13.298 -27.904,20.326 -44.927,18.659 -41.366,-4.05 -69.504,-49.361 -84.147,-83.751 -19.109,-44.877 -22.777,-94.068 -19.999,-142.294 1.401,-24.309 2.479,-50.589 10.502,-73.804 3.306,-9.566 8.418,-18.096 12.846,-27.139 6.56,-13.396 7.022,-26.776 7.715,-41.398 1.176,-24.793 2.896,-50.057 12.828,-73.147 10.467,-24.333 29.106,-43.806 47.525,-62.338 0.483,-0.487 0.996,-0.825 1.516,-1.094 -12.522,-16.998 -8.626,-41.681 0.325,-60.698 8.111,-17.233 20.385,-32.194 35.056,-44.256 -0.233,0.119 -0.484,0.224 -0.758,0.308 -15.024,4.612 -31.321,5.013 -46.935,5.079 -15.016,0.064 -32.913,0.716 -47.11,-4.693 -5.19,-1.978 -4.326,-9.113 1.3,-9.604 14.939,-1.305 30.722,2.158 45.81,2.323 4.476,0.049 8.952,-0.091 13.425,-0.289 -14.501,-3.142 -28.761,-8.276 -39.288,-16.324 -3.753,-2.869 -1.632,-8.489 3.222,-7.64 11.521,2.013 22.674,7.129 33.938,10.334 7.987,2.273 16.034,3.94 24.122,5.544 0.426,-0.081 0.872,-0.125 1.352,-0.095 0.104,0.006 0.209,0.02 0.314,0.025 -1.946,-11.16 -5.627,-22.079 -10.188,-32.42 -4.643,-10.532 -12.132,-19.802 -15.964,-30.574 -1.884,-5.294 4.957,-7.758 8.485,-4.939 11.496,9.193 18.298,26.598 23.29,40.111 2.828,7.66 8.206,19.823 6.42,29.042 4.75,0.644 9.533,1.483 14.318,2.527 1.078,-0.67 2.158,-1.338 3.252,-1.98 45.38,-26.591 102.317,-29.613 150.603,-9.58 -15.162,-16.806 -30.66,-33.279 -46.09,-49.865 -10.61,-11.403 -21.7,-22.292 -32.669,-33.342 -10.3,-10.375 -21.286,-25.904 -34.595,-33.276 -1.155,-0.558 -2.318,-1.139 -3.534,-1.758 -5.732,-2.44 -0.774,-11.585 5.009,-8.569 2.326,1.214 4.402,2.368 6.414,3.687 0.617,-1.102 1.767,-1.976 3.551,-2.194 19.99,-2.442 37.664,-10.977 54.951,-20.522 -5.47,-8.762 -8.826,-18.503 -13.024,-28.076 -6.716,-15.311 -14.833,-29.982 -23.384,-44.334 -15.065,-25.289 -31.748,-49.593 -46.545,-75.041 -7.204,0.217 -14.778,-2.48 -20.862,-8.465 -8.647,-8.506 -12.226,-20.923 -14.588,-32.47 -2.724,-13.327 -4.863,-28.241 -1.756,-41.702 4.175,-18.088 24.757,-34.884 41.99,-20.398 7.436,6.253 10.671,15.989 14.345,24.65 6.601,15.558 17.279,27.495 29.04,39.337 23.639,23.802 41.893,50.071 58.125,79.39 8.314,15.011 16.177,30.271 24.622,45.211 3.889,6.877 7.884,13.695 12.102,20.377 2.234,3.541 7.623,14.903 12.194,18.862 0.742,-0.233 1.622,-0.191 2.203,0.193 0.308,0.203 0.617,0.408 0.925,0.611 0.78,0.514 1.476,1.422 1.388,2.42 -0.028,0.315 -0.056,0.63 -0.084,0.945 -0.002,0.025 -0.014,0.044 -0.017,0.068 15.815,-0.554 32.11,-1.104 47.827,-3.628 -0.369,-0.589 -0.75,-1.287 -1.218,-2.162 -4.292,-8.011 -6.44,-18.281 -9.54,-26.856 -6.457,-17.856 -12.445,-35.888 -18.652,-53.832 -11.794,-34.092 -22.734,-68.498 -34.835,-102.482 -2.114,-5.94 -4.597,-11.676 -7.214,-17.341 -1.261,-0.274 -2.546,-0.623 -3.856,-1.072 -21.64,-7.406 -34.804,-41.127 -34.095,-62.116 0.953,-28.213 27.133,-35.599 50.701,-28.415 26.659,8.127 35.733,44.816 45.874,67.117 30.234,66.492 65.251,134.469 73.932,207.94 0.136,1.148 -0.428,2 -1.258,2.511 3.746,38.432 9.037,76.846 13.66,115.266 4.576,-27.847 48.855,-51.222 72.82,-52.063 33.495,-1.173 69.892,9.984 98.943,26.188 7.374,4.112 14.403,8.967 20.686,14.63 13.927,-11.022 28.334,-21.494 43.097,-31.326 -0.574,-0.556 -1.016,-1.255 -1.287,-2.058 -0.074,0.021 -0.148,0.041 -0.221,0.062 -2.115,-12.355 -0.861,-25.296 -2.149,-37.831 -1.386,-13.487 -5.421,-26.954 -5.891,-40.445 -0.159,-4.517 6.601,-6.501 8.694,-2.354 5.833,11.555 7.457,25.48 8.842,38.254 1.336,12.328 3.016,26.261 0.717,38.708 5.709,-3.674 11.458,-7.253 17.249,-10.732 0.251,-0.318 0.519,-0.62 0.765,-0.943 6.93,-9.117 9.155,-20.146 15.154,-29.458 2.777,-4.311 9.065,-2.448 9.39,2.543 0.768,11.791 -8.037,25.381 -14.965,34.303 -2.293,2.954 -5.226,6.623 -8.571,10.05 3.557,-0.119 7.107,-0.257 10.639,-0.496 11.619,-0.788 23.854,-3.132 35.44,-1.773 5.847,0.686 7.107,8.111 1.389,10.264 -10.687,4.026 -23.31,4.287 -34.609,5.07 -4.776,0.33 -9.625,0.715 -14.488,0.992 l 20.434,108.356 c 15.775,11.37 30.077,24.786 42.264,40.046 13.494,16.896 35.171,45.383 27.523,68.822 -1.201,3.682 -3.028,6.516 -5.3,8.651 26.345,15.68 48.294,37.167 59.297,67.386 6.956,19.107 10.259,42.464 4.37,62.29 -2.564,8.633 -7.867,16.729 -14.934,21.752 7.716,3.546 14.496,8.619 18.832,16.53"
           style="fill:#000000;fill-opacity:1;fill-rule:nonzero;stroke:none"
           id="path1003" />
      </g>
      <g
         id="g1005"
         transform="translate(1438.9009,1362.9545)">
        <path
           d="M 0,0 C 0.411,0.13 57.793,10.069 74.759,-48.069"
           style="fill:none;stroke:#000000;stroke-width:9;stroke-linecap:round;stroke-linejoin:round;stroke-miterlimit:10;stroke-dasharray:none;stroke-opacity:1"
           id="path1007" />
      </g>
    </g>
  </g>
</svg>
